<svg width="64" height="44" viewBox="0 0 64 44" fill="none" xmlns="http://www.w3.org/2000/svg">
<g id="Vector">
<path d="M16.5967 2.29542C19.5268 -0.634684 24.2775 -0.634689 27.2076 2.29541L41.6067 16.6946C44.5368 19.6247 44.5368 24.3753 41.6067 27.3054L27.2076 41.7046C24.2775 44.6347 19.5268 44.6347 16.5967 41.7046L2.19758 27.3054C-0.732524 24.3753 -0.732529 19.6247 2.19758 16.6946L16.5967 2.29542Z" fill="#283B4B"/>
<path d="M63.5855 22C63.5855 33.5105 54.2544 42.8417 42.7438 42.8417C31.2333 42.8417 21.9022 33.5105 21.9022 22C21.9022 10.4895 31.2333 1.15833 42.7438 1.15833C54.2544 1.15833 63.5855 10.4895 63.5855 22Z" fill="white"/>
</g>
</svg>
