<svg width="554" height="208" viewBox="0 0 554 208" fill="none" xmlns="http://www.w3.org/2000/svg">
<g clip-path="url(#clip0_109_21)">
<path d="M554 0H0V208H554V0Z" fill="white"/>
<path d="M554 0H0V208H554V0Z" fill="url(#paint0_radial_109_21)"/>
<path d="M154.954 115H150.735L158.416 93.1818H163.295L170.987 115H166.768L160.941 97.6562H160.771L154.954 115ZM155.092 106.445H166.598V109.62H155.092V106.445ZM179.265 115.288C177.979 115.288 176.829 114.957 175.813 114.297C174.798 113.636 173.995 112.678 173.406 111.42C172.816 110.163 172.521 108.636 172.521 106.839C172.521 105.021 172.82 103.487 173.416 102.237C174.02 100.98 174.833 100.032 175.856 99.3928C176.879 98.7464 178.018 98.4233 179.276 98.4233C180.234 98.4233 181.023 98.5866 181.641 98.9134C182.259 99.233 182.749 99.62 183.111 100.075C183.473 100.522 183.754 100.945 183.952 101.342H184.112V93.1818H187.979V115H184.187V112.422H183.952C183.754 112.82 183.466 113.242 183.089 113.69C182.713 114.13 182.216 114.506 181.598 114.819C180.98 115.131 180.202 115.288 179.265 115.288ZM180.341 112.124C181.158 112.124 181.854 111.903 182.429 111.463C183.004 111.016 183.441 110.394 183.739 109.599C184.038 108.803 184.187 107.876 184.187 106.818C184.187 105.76 184.038 104.84 183.739 104.059C183.448 103.278 183.015 102.67 182.44 102.237C181.871 101.804 181.172 101.587 180.341 101.587C179.482 101.587 178.764 101.811 178.189 102.259C177.614 102.706 177.18 103.324 176.889 104.112C176.598 104.901 176.452 105.803 176.452 106.818C176.452 107.841 176.598 108.754 176.889 109.556C177.188 110.352 177.624 110.98 178.2 111.442C178.782 111.896 179.496 112.124 180.341 112.124ZM198.161 115.288C196.876 115.288 195.725 114.957 194.71 114.297C193.694 113.636 192.892 112.678 192.302 111.42C191.713 110.163 191.418 108.636 191.418 106.839C191.418 105.021 191.716 103.487 192.313 102.237C192.916 100.98 193.73 100.032 194.752 99.3928C195.775 98.7464 196.915 98.4233 198.172 98.4233C199.131 98.4233 199.919 98.5866 200.537 98.9134C201.155 99.233 201.645 99.62 202.007 100.075C202.369 100.522 202.65 100.945 202.849 101.342H203.009V93.1818H206.876V115H203.083V112.422H202.849C202.65 112.82 202.362 113.242 201.986 113.69C201.61 114.13 201.112 114.506 200.494 114.819C199.877 115.131 199.099 115.288 198.161 115.288ZM199.237 112.124C200.054 112.124 200.75 111.903 201.325 111.463C201.901 111.016 202.338 110.394 202.636 109.599C202.934 108.803 203.083 107.876 203.083 106.818C203.083 105.76 202.934 104.84 202.636 104.059C202.345 103.278 201.911 102.67 201.336 102.237C200.768 101.804 200.068 101.587 199.237 101.587C198.378 101.587 197.661 101.811 197.085 102.259C196.51 102.706 196.077 103.324 195.786 104.112C195.494 104.901 195.349 105.803 195.349 106.818C195.349 107.841 195.494 108.754 195.786 109.556C196.084 110.352 196.521 110.98 197.096 111.442C197.678 111.896 198.392 112.124 199.237 112.124ZM218.597 93.1818H223.434L229.911 108.991H230.167L236.644 93.1818H241.481V115H237.688V100.011H237.486L231.456 114.936H228.622L222.592 99.9787H222.39V115H218.597V93.1818ZM252.859 115.32C251.218 115.32 249.801 114.979 248.608 114.297C247.422 113.608 246.509 112.635 245.87 111.378C245.231 110.114 244.911 108.626 244.911 106.914C244.911 105.231 245.231 103.754 245.87 102.482C246.516 101.204 247.418 100.21 248.576 99.4993C249.734 98.782 251.094 98.4233 252.656 98.4233C253.665 98.4233 254.616 98.5866 255.511 98.9134C256.413 99.233 257.209 99.7301 257.898 100.405C258.594 101.08 259.141 101.939 259.538 102.983C259.936 104.02 260.135 105.256 260.135 106.69V107.873H246.722V105.273H256.438C256.431 104.535 256.271 103.878 255.959 103.303C255.646 102.72 255.21 102.262 254.648 101.928C254.094 101.594 253.448 101.428 252.71 101.428C251.921 101.428 251.229 101.619 250.632 102.003C250.036 102.379 249.57 102.876 249.237 103.494C248.91 104.105 248.743 104.776 248.736 105.508V107.777C248.736 108.729 248.91 109.545 249.258 110.227C249.606 110.902 250.092 111.42 250.717 111.783C251.342 112.138 252.074 112.315 252.912 112.315C253.473 112.315 253.981 112.237 254.435 112.081C254.89 111.918 255.284 111.68 255.618 111.367C255.952 111.055 256.204 110.668 256.374 110.206L259.975 110.611C259.748 111.562 259.315 112.393 258.675 113.104C258.043 113.807 257.234 114.354 256.246 114.744C255.259 115.128 254.13 115.32 252.859 115.32ZM263.398 115V98.6364H267.084V101.417H267.275C267.616 100.479 268.181 99.7479 268.969 99.2223C269.758 98.6896 270.699 98.4233 271.792 98.4233C272.9 98.4233 273.834 98.6932 274.594 99.233C275.361 99.7656 275.901 100.494 276.214 101.417H276.384C276.746 100.508 277.357 99.7834 278.216 99.2436C279.083 98.6967 280.109 98.4233 281.295 98.4233C282.801 98.4233 284.03 98.8991 284.981 99.8509C285.933 100.803 286.409 102.191 286.409 104.016V115H282.542V104.613C282.542 103.597 282.272 102.855 281.732 102.386C281.192 101.911 280.532 101.673 279.751 101.673C278.82 101.673 278.092 101.964 277.567 102.546C277.048 103.121 276.789 103.871 276.789 104.794V115H273.007V104.453C273.007 103.608 272.751 102.933 272.24 102.429C271.736 101.925 271.075 101.673 270.258 101.673C269.704 101.673 269.2 101.815 268.746 102.099C268.291 102.376 267.929 102.77 267.659 103.281C267.389 103.786 267.254 104.375 267.254 105.05V115H263.398ZM297.566 115.32C295.925 115.32 294.508 114.979 293.315 114.297C292.129 113.608 291.216 112.635 290.577 111.378C289.938 110.114 289.618 108.626 289.618 106.914C289.618 105.231 289.938 103.754 290.577 102.482C291.223 101.204 292.125 100.21 293.283 99.4993C294.441 98.782 295.801 98.4233 297.363 98.4233C298.372 98.4233 299.324 98.5866 300.218 98.9134C301.12 99.233 301.916 99.7301 302.605 100.405C303.301 101.08 303.848 101.939 304.245 102.983C304.643 104.02 304.842 105.256 304.842 106.69V107.873H291.429V105.273H301.145C301.138 104.535 300.978 103.878 300.666 103.303C300.353 102.72 299.917 102.262 299.355 101.928C298.801 101.594 298.155 101.428 297.417 101.428C296.628 101.428 295.936 101.619 295.339 102.003C294.743 102.379 294.277 102.876 293.944 103.494C293.617 104.105 293.45 104.776 293.443 105.508V107.777C293.443 108.729 293.617 109.545 293.965 110.227C294.313 110.902 294.799 111.42 295.424 111.783C296.049 112.138 296.781 112.315 297.619 112.315C298.18 112.315 298.688 112.237 299.142 112.081C299.597 111.918 299.991 111.68 300.325 111.367C300.659 111.055 300.911 110.668 301.081 110.206L304.682 110.611C304.455 111.562 304.022 112.393 303.382 113.104C302.75 113.807 301.941 114.354 300.953 114.744C299.966 115.128 298.837 115.32 297.566 115.32ZM319.669 93.1818V115H315.716V93.1818H319.669ZM323.778 115V98.6364H327.464V101.417H327.656C327.997 100.479 328.562 99.7479 329.35 99.2223C330.138 98.6896 331.08 98.4233 332.173 98.4233C333.281 98.4233 334.215 98.6932 334.975 99.233C335.742 99.7656 336.282 100.494 336.594 101.417H336.765C337.127 100.508 337.738 99.7834 338.597 99.2436C339.464 98.6967 340.49 98.4233 341.676 98.4233C343.182 98.4233 344.411 98.8991 345.362 99.8509C346.314 100.803 346.79 102.191 346.79 104.016V115H342.923V104.613C342.923 103.597 342.653 102.855 342.113 102.386C341.573 101.911 340.913 101.673 340.131 101.673C339.201 101.673 338.473 101.964 337.947 102.546C337.429 103.121 337.17 103.871 337.17 104.794V115H333.388V104.453C333.388 103.608 333.132 102.933 332.621 102.429C332.116 101.925 331.456 101.673 330.639 101.673C330.085 101.673 329.581 101.815 329.126 102.099C328.672 102.376 328.31 102.77 328.04 103.281C327.77 103.786 327.635 104.375 327.635 105.05V115H323.778ZM355.411 115.33C354.374 115.33 353.44 115.146 352.609 114.776C351.785 114.4 351.132 113.846 350.649 113.114C350.173 112.383 349.935 111.481 349.935 110.408C349.935 109.485 350.106 108.722 350.447 108.118C350.787 107.514 351.253 107.031 351.842 106.669C352.432 106.307 353.096 106.033 353.834 105.849C354.58 105.657 355.351 105.518 356.146 105.433C357.105 105.334 357.883 105.245 358.479 105.167C359.076 105.082 359.509 104.954 359.779 104.783C360.056 104.606 360.194 104.332 360.194 103.963V103.899C360.194 103.097 359.956 102.475 359.481 102.035C359.005 101.594 358.319 101.374 357.425 101.374C356.48 101.374 355.731 101.58 355.177 101.992C354.63 102.404 354.26 102.891 354.069 103.452L350.468 102.94C350.752 101.946 351.221 101.115 351.874 100.447C352.528 99.7727 353.327 99.2685 354.271 98.9347C355.216 98.5938 356.26 98.4233 357.403 98.4233C358.192 98.4233 358.976 98.5156 359.758 98.7003C360.539 98.8849 361.253 99.1903 361.899 99.6165C362.545 100.036 363.064 100.607 363.454 101.332C363.852 102.056 364.051 102.962 364.051 104.048V115H360.344V112.752H360.216C359.981 113.207 359.651 113.633 359.225 114.031C358.806 114.421 358.277 114.737 357.638 114.979C357.006 115.213 356.263 115.33 355.411 115.33ZM356.412 112.496C357.187 112.496 357.858 112.344 358.426 112.038C358.994 111.726 359.431 111.314 359.736 110.803C360.049 110.291 360.205 109.734 360.205 109.13V107.202C360.084 107.301 359.878 107.393 359.587 107.479C359.303 107.564 358.983 107.638 358.628 107.702C358.273 107.766 357.922 107.823 357.574 107.873C357.226 107.923 356.924 107.965 356.668 108.001C356.093 108.079 355.578 108.207 355.123 108.384C354.669 108.562 354.31 108.81 354.047 109.13C353.785 109.442 353.653 109.847 353.653 110.344C353.653 111.055 353.912 111.591 354.431 111.953C354.949 112.315 355.61 112.496 356.412 112.496ZM375.045 121.477C373.66 121.477 372.471 121.289 371.476 120.913C370.482 120.543 369.683 120.046 369.079 119.421C368.476 118.796 368.057 118.104 367.822 117.344L371.295 116.502C371.452 116.822 371.679 117.138 371.977 117.45C372.275 117.77 372.677 118.033 373.181 118.239C373.692 118.452 374.335 118.558 375.109 118.558C376.203 118.558 377.108 118.292 377.826 117.759C378.543 117.234 378.902 116.367 378.902 115.16V112.06H378.71C378.511 112.457 378.22 112.866 377.836 113.285C377.46 113.704 376.959 114.055 376.334 114.339C375.716 114.624 374.939 114.766 374.001 114.766C372.744 114.766 371.604 114.471 370.581 113.881C369.566 113.285 368.756 112.397 368.153 111.218C367.556 110.032 367.258 108.548 367.258 106.765C367.258 104.968 367.556 103.452 368.153 102.216C368.756 100.973 369.569 100.032 370.592 99.3928C371.615 98.7464 372.755 98.4233 374.012 98.4233C374.971 98.4233 375.759 98.5866 376.377 98.9134C377.002 99.233 377.499 99.62 377.868 100.075C378.238 100.522 378.518 100.945 378.71 101.342H378.923V98.6364H382.726V115.266C382.726 116.665 382.393 117.823 381.725 118.739C381.057 119.656 380.145 120.341 378.987 120.795C377.829 121.25 376.515 121.477 375.045 121.477ZM375.077 111.74C375.894 111.74 376.59 111.541 377.165 111.143C377.741 110.746 378.177 110.174 378.476 109.428C378.774 108.683 378.923 107.788 378.923 106.744C378.923 105.714 378.774 104.812 378.476 104.038C378.184 103.263 377.751 102.663 377.176 102.237C376.608 101.804 375.908 101.587 375.077 101.587C374.218 101.587 373.501 101.811 372.925 102.259C372.35 102.706 371.917 103.32 371.626 104.102C371.334 104.876 371.189 105.756 371.189 106.744C371.189 107.745 371.334 108.622 371.626 109.375C371.924 110.121 372.361 110.703 372.936 111.122C373.518 111.534 374.232 111.74 375.077 111.74ZM393.923 115.32C392.282 115.32 390.866 114.979 389.672 114.297C388.486 113.608 387.574 112.635 386.934 111.378C386.295 110.114 385.976 108.626 385.976 106.914C385.976 105.231 386.295 103.754 386.934 102.482C387.581 101.204 388.483 100.21 389.64 99.4993C390.798 98.782 392.158 98.4233 393.721 98.4233C394.729 98.4233 395.681 98.5866 396.576 98.9134C397.478 99.233 398.273 99.7301 398.962 100.405C399.658 101.08 400.205 101.939 400.603 102.983C401.001 104.02 401.199 105.256 401.199 106.69V107.873H387.787V105.273H397.503C397.496 104.535 397.336 103.878 397.023 103.303C396.711 102.72 396.274 102.262 395.713 101.928C395.159 101.594 394.513 101.428 393.774 101.428C392.986 101.428 392.293 101.619 391.697 102.003C391.1 102.379 390.635 102.876 390.301 103.494C389.974 104.105 389.807 104.776 389.8 105.508V107.777C389.8 108.729 389.974 109.545 390.322 110.227C390.67 110.902 391.157 111.42 391.782 111.783C392.407 112.138 393.138 112.315 393.976 112.315C394.537 112.315 395.045 112.237 395.5 112.081C395.954 111.918 396.349 111.68 396.682 111.367C397.016 111.055 397.268 110.668 397.439 110.206L401.04 110.611C400.812 111.562 400.379 112.393 399.74 113.104C399.108 113.807 398.298 114.354 397.311 114.744C396.324 115.128 395.194 115.32 393.923 115.32Z" fill="url(#paint1_linear_109_21)"/>
</g>
<defs>
<radialGradient id="paint0_radial_109_21" cx="0" cy="0" r="1" gradientUnits="userSpaceOnUse" gradientTransform="translate(277 104) rotate(17.9995) scale(336.56 193.259)">
<stop offset="0.316162" stop-color="white"/>
<stop offset="1" stop-color="#F2FFEA"/>
</radialGradient>
<linearGradient id="paint1_linear_109_21" x1="276.849" y1="73.958" x2="276.849" y2="131.844" gradientUnits="userSpaceOnUse">
<stop stop-color="#85FF7A"/>
<stop offset="1" stop-color="#3B9C00"/>
</linearGradient>
<clipPath id="clip0_109_21">
<rect width="554" height="208" fill="white"/>
</clipPath>
</defs>
</svg>
